%
M48
M72
T01C0.0276
T02C0.0315
T03C0.0320
T04C0.0400
T05C0.1260
%
T01
X7490Y10891
X8490Y10891
X8450Y7943
X7450Y7943
T02
X5317Y16631
X6317Y16631
X7317Y16631
X8317Y16631
T03
X4883Y13580
X8883Y13580
T04
X5108Y3053
X6108Y3053
X7108Y3053
X8108Y3053
X9108Y3053
X14206Y3876
X14206Y4876
X14206Y5876
X14206Y6876
X14206Y7876
X14206Y8876
X14206Y9876
X14206Y10876
X14206Y11876
X14206Y12876
X14206Y13876
X14206Y14876
X14206Y15876
X15206Y15876
X15206Y14876
X15206Y13876
X15206Y12876
X15206Y11876
X15206Y10876
X15206Y9876
X15206Y8876
X15206Y7876
X15206Y6876
X15206Y5876
X15206Y4876
X15206Y3876
T05
X1675Y18210
X1675Y1675
X18210Y1675
X18210Y18210
M30
