G75*
%MOIN*%
%OFA0B0*%
%FSLAX24Y24*%
%IPPOS*%
%LPD*%
%AMOC8*
5,1,8,0,0,1.08239X$1,22.5*
%
%ADD10C,0.0000*%
%ADD11C,0.0040*%
%ADD12C,0.0050*%
%ADD13C,0.0080*%
%ADD14C,0.0010*%
%ADD15C,0.0060*%
%ADD16R,0.0340X0.0240*%
D10*
X000100Y000100D02*
X000100Y019785D01*
X019785Y019785D01*
X019785Y000100D01*
X000100Y000100D01*
X001045Y001675D02*
X001047Y001725D01*
X001053Y001775D01*
X001063Y001824D01*
X001077Y001872D01*
X001094Y001919D01*
X001115Y001964D01*
X001140Y002008D01*
X001168Y002049D01*
X001200Y002088D01*
X001234Y002125D01*
X001271Y002159D01*
X001311Y002189D01*
X001353Y002216D01*
X001397Y002240D01*
X001443Y002261D01*
X001490Y002277D01*
X001538Y002290D01*
X001588Y002299D01*
X001637Y002304D01*
X001688Y002305D01*
X001738Y002302D01*
X001787Y002295D01*
X001836Y002284D01*
X001884Y002269D01*
X001930Y002251D01*
X001975Y002229D01*
X002018Y002203D01*
X002059Y002174D01*
X002098Y002142D01*
X002134Y002107D01*
X002166Y002069D01*
X002196Y002029D01*
X002223Y001986D01*
X002246Y001942D01*
X002265Y001896D01*
X002281Y001848D01*
X002293Y001799D01*
X002301Y001750D01*
X002305Y001700D01*
X002305Y001650D01*
X002301Y001600D01*
X002293Y001551D01*
X002281Y001502D01*
X002265Y001454D01*
X002246Y001408D01*
X002223Y001364D01*
X002196Y001321D01*
X002166Y001281D01*
X002134Y001243D01*
X002098Y001208D01*
X002059Y001176D01*
X002018Y001147D01*
X001975Y001121D01*
X001930Y001099D01*
X001884Y001081D01*
X001836Y001066D01*
X001787Y001055D01*
X001738Y001048D01*
X001688Y001045D01*
X001637Y001046D01*
X001588Y001051D01*
X001538Y001060D01*
X001490Y001073D01*
X001443Y001089D01*
X001397Y001110D01*
X001353Y001134D01*
X001311Y001161D01*
X001271Y001191D01*
X001234Y001225D01*
X001200Y001262D01*
X001168Y001301D01*
X001140Y001342D01*
X001115Y001386D01*
X001094Y001431D01*
X001077Y001478D01*
X001063Y001526D01*
X001053Y001575D01*
X001047Y001625D01*
X001045Y001675D01*
X001045Y018210D02*
X001047Y018260D01*
X001053Y018310D01*
X001063Y018359D01*
X001077Y018407D01*
X001094Y018454D01*
X001115Y018499D01*
X001140Y018543D01*
X001168Y018584D01*
X001200Y018623D01*
X001234Y018660D01*
X001271Y018694D01*
X001311Y018724D01*
X001353Y018751D01*
X001397Y018775D01*
X001443Y018796D01*
X001490Y018812D01*
X001538Y018825D01*
X001588Y018834D01*
X001637Y018839D01*
X001688Y018840D01*
X001738Y018837D01*
X001787Y018830D01*
X001836Y018819D01*
X001884Y018804D01*
X001930Y018786D01*
X001975Y018764D01*
X002018Y018738D01*
X002059Y018709D01*
X002098Y018677D01*
X002134Y018642D01*
X002166Y018604D01*
X002196Y018564D01*
X002223Y018521D01*
X002246Y018477D01*
X002265Y018431D01*
X002281Y018383D01*
X002293Y018334D01*
X002301Y018285D01*
X002305Y018235D01*
X002305Y018185D01*
X002301Y018135D01*
X002293Y018086D01*
X002281Y018037D01*
X002265Y017989D01*
X002246Y017943D01*
X002223Y017899D01*
X002196Y017856D01*
X002166Y017816D01*
X002134Y017778D01*
X002098Y017743D01*
X002059Y017711D01*
X002018Y017682D01*
X001975Y017656D01*
X001930Y017634D01*
X001884Y017616D01*
X001836Y017601D01*
X001787Y017590D01*
X001738Y017583D01*
X001688Y017580D01*
X001637Y017581D01*
X001588Y017586D01*
X001538Y017595D01*
X001490Y017608D01*
X001443Y017624D01*
X001397Y017645D01*
X001353Y017669D01*
X001311Y017696D01*
X001271Y017726D01*
X001234Y017760D01*
X001200Y017797D01*
X001168Y017836D01*
X001140Y017877D01*
X001115Y017921D01*
X001094Y017966D01*
X001077Y018013D01*
X001063Y018061D01*
X001053Y018110D01*
X001047Y018160D01*
X001045Y018210D01*
X017580Y018210D02*
X017582Y018260D01*
X017588Y018310D01*
X017598Y018359D01*
X017612Y018407D01*
X017629Y018454D01*
X017650Y018499D01*
X017675Y018543D01*
X017703Y018584D01*
X017735Y018623D01*
X017769Y018660D01*
X017806Y018694D01*
X017846Y018724D01*
X017888Y018751D01*
X017932Y018775D01*
X017978Y018796D01*
X018025Y018812D01*
X018073Y018825D01*
X018123Y018834D01*
X018172Y018839D01*
X018223Y018840D01*
X018273Y018837D01*
X018322Y018830D01*
X018371Y018819D01*
X018419Y018804D01*
X018465Y018786D01*
X018510Y018764D01*
X018553Y018738D01*
X018594Y018709D01*
X018633Y018677D01*
X018669Y018642D01*
X018701Y018604D01*
X018731Y018564D01*
X018758Y018521D01*
X018781Y018477D01*
X018800Y018431D01*
X018816Y018383D01*
X018828Y018334D01*
X018836Y018285D01*
X018840Y018235D01*
X018840Y018185D01*
X018836Y018135D01*
X018828Y018086D01*
X018816Y018037D01*
X018800Y017989D01*
X018781Y017943D01*
X018758Y017899D01*
X018731Y017856D01*
X018701Y017816D01*
X018669Y017778D01*
X018633Y017743D01*
X018594Y017711D01*
X018553Y017682D01*
X018510Y017656D01*
X018465Y017634D01*
X018419Y017616D01*
X018371Y017601D01*
X018322Y017590D01*
X018273Y017583D01*
X018223Y017580D01*
X018172Y017581D01*
X018123Y017586D01*
X018073Y017595D01*
X018025Y017608D01*
X017978Y017624D01*
X017932Y017645D01*
X017888Y017669D01*
X017846Y017696D01*
X017806Y017726D01*
X017769Y017760D01*
X017735Y017797D01*
X017703Y017836D01*
X017675Y017877D01*
X017650Y017921D01*
X017629Y017966D01*
X017612Y018013D01*
X017598Y018061D01*
X017588Y018110D01*
X017582Y018160D01*
X017580Y018210D01*
X017580Y001675D02*
X017582Y001725D01*
X017588Y001775D01*
X017598Y001824D01*
X017612Y001872D01*
X017629Y001919D01*
X017650Y001964D01*
X017675Y002008D01*
X017703Y002049D01*
X017735Y002088D01*
X017769Y002125D01*
X017806Y002159D01*
X017846Y002189D01*
X017888Y002216D01*
X017932Y002240D01*
X017978Y002261D01*
X018025Y002277D01*
X018073Y002290D01*
X018123Y002299D01*
X018172Y002304D01*
X018223Y002305D01*
X018273Y002302D01*
X018322Y002295D01*
X018371Y002284D01*
X018419Y002269D01*
X018465Y002251D01*
X018510Y002229D01*
X018553Y002203D01*
X018594Y002174D01*
X018633Y002142D01*
X018669Y002107D01*
X018701Y002069D01*
X018731Y002029D01*
X018758Y001986D01*
X018781Y001942D01*
X018800Y001896D01*
X018816Y001848D01*
X018828Y001799D01*
X018836Y001750D01*
X018840Y001700D01*
X018840Y001650D01*
X018836Y001600D01*
X018828Y001551D01*
X018816Y001502D01*
X018800Y001454D01*
X018781Y001408D01*
X018758Y001364D01*
X018731Y001321D01*
X018701Y001281D01*
X018669Y001243D01*
X018633Y001208D01*
X018594Y001176D01*
X018553Y001147D01*
X018510Y001121D01*
X018465Y001099D01*
X018419Y001081D01*
X018371Y001066D01*
X018322Y001055D01*
X018273Y001048D01*
X018223Y001045D01*
X018172Y001046D01*
X018123Y001051D01*
X018073Y001060D01*
X018025Y001073D01*
X017978Y001089D01*
X017932Y001110D01*
X017888Y001134D01*
X017846Y001161D01*
X017806Y001191D01*
X017769Y001225D01*
X017735Y001262D01*
X017703Y001301D01*
X017675Y001342D01*
X017650Y001386D01*
X017629Y001431D01*
X017612Y001478D01*
X017598Y001526D01*
X017588Y001575D01*
X017582Y001625D01*
X017580Y001675D01*
D11*
X005604Y015601D02*
X005297Y015601D01*
X005450Y015601D02*
X005450Y016062D01*
X005297Y015908D01*
X005143Y016062D02*
X005143Y015678D01*
X005067Y015601D01*
X004913Y015601D01*
X004837Y015678D01*
X004837Y016062D01*
D12*
X005067Y016131D02*
X008817Y016131D01*
X008817Y017131D01*
X004817Y017131D01*
X004817Y016381D01*
X005067Y016131D01*
X007188Y012956D02*
X007413Y012956D01*
X007488Y012881D01*
X007488Y012731D01*
X007413Y012655D01*
X007188Y012655D01*
X007188Y012505D02*
X007188Y012956D01*
X007338Y012655D02*
X007488Y012505D01*
X007648Y012505D02*
X007948Y012505D01*
X007798Y012505D02*
X007798Y012956D01*
X007648Y012806D01*
X008883Y004178D02*
X008883Y003953D01*
X009033Y004028D01*
X009108Y004028D01*
X009183Y003953D01*
X009183Y003803D01*
X009108Y003728D01*
X008958Y003728D01*
X008883Y003803D01*
X008883Y004178D02*
X009183Y004178D01*
X005854Y004103D02*
X005779Y004178D01*
X005629Y004178D01*
X005554Y004103D01*
X005394Y004178D02*
X005394Y003878D01*
X005243Y003728D01*
X005093Y003878D01*
X005093Y004178D01*
X004933Y004103D02*
X004858Y004178D01*
X004708Y004178D01*
X004633Y004103D01*
X004633Y004028D01*
X004708Y003953D01*
X004858Y003953D01*
X004933Y003878D01*
X004933Y003803D01*
X004858Y003728D01*
X004708Y003728D01*
X004633Y003803D01*
X005554Y003728D02*
X005854Y004028D01*
X005854Y004103D01*
X005854Y003728D02*
X005554Y003728D01*
X005033Y002378D02*
X004883Y002228D01*
X005033Y002378D02*
X005033Y001928D01*
X004883Y001928D02*
X005183Y001928D01*
D13*
X006966Y007943D02*
X006968Y008005D01*
X006974Y008068D01*
X006984Y008129D01*
X006998Y008190D01*
X007015Y008250D01*
X007036Y008309D01*
X007062Y008366D01*
X007090Y008421D01*
X007122Y008475D01*
X007158Y008526D01*
X007196Y008576D01*
X007238Y008622D01*
X007282Y008666D01*
X007330Y008707D01*
X007379Y008745D01*
X007431Y008779D01*
X007485Y008810D01*
X007541Y008838D01*
X007599Y008862D01*
X007658Y008883D01*
X007718Y008899D01*
X007779Y008912D01*
X007841Y008921D01*
X007903Y008926D01*
X007966Y008927D01*
X008028Y008924D01*
X008090Y008917D01*
X008152Y008906D01*
X008212Y008891D01*
X008272Y008873D01*
X008330Y008851D01*
X008387Y008825D01*
X008442Y008795D01*
X008495Y008762D01*
X008546Y008726D01*
X008594Y008687D01*
X008640Y008644D01*
X008683Y008599D01*
X008723Y008551D01*
X008760Y008501D01*
X008794Y008448D01*
X008825Y008394D01*
X008851Y008338D01*
X008875Y008280D01*
X008894Y008220D01*
X008910Y008160D01*
X008922Y008098D01*
X008930Y008037D01*
X008934Y007974D01*
X008934Y007912D01*
X008930Y007849D01*
X008922Y007788D01*
X008910Y007726D01*
X008894Y007666D01*
X008875Y007606D01*
X008851Y007548D01*
X008825Y007492D01*
X008794Y007438D01*
X008760Y007385D01*
X008723Y007335D01*
X008683Y007287D01*
X008640Y007242D01*
X008594Y007199D01*
X008546Y007160D01*
X008495Y007124D01*
X008442Y007091D01*
X008387Y007061D01*
X008330Y007035D01*
X008272Y007013D01*
X008212Y006995D01*
X008152Y006980D01*
X008090Y006969D01*
X008028Y006962D01*
X007966Y006959D01*
X007903Y006960D01*
X007841Y006965D01*
X007779Y006974D01*
X007718Y006987D01*
X007658Y007003D01*
X007599Y007024D01*
X007541Y007048D01*
X007485Y007076D01*
X007431Y007107D01*
X007379Y007141D01*
X007330Y007179D01*
X007282Y007220D01*
X007238Y007264D01*
X007196Y007310D01*
X007158Y007360D01*
X007122Y007411D01*
X007090Y007465D01*
X007062Y007520D01*
X007036Y007577D01*
X007015Y007636D01*
X006998Y007696D01*
X006984Y007757D01*
X006974Y007818D01*
X006968Y007881D01*
X006966Y007943D01*
X007250Y008493D02*
X007650Y008493D01*
X007006Y010891D02*
X007008Y010953D01*
X007014Y011016D01*
X007024Y011077D01*
X007038Y011138D01*
X007055Y011198D01*
X007076Y011257D01*
X007102Y011314D01*
X007130Y011369D01*
X007162Y011423D01*
X007198Y011474D01*
X007236Y011524D01*
X007278Y011570D01*
X007322Y011614D01*
X007370Y011655D01*
X007419Y011693D01*
X007471Y011727D01*
X007525Y011758D01*
X007581Y011786D01*
X007639Y011810D01*
X007698Y011831D01*
X007758Y011847D01*
X007819Y011860D01*
X007881Y011869D01*
X007943Y011874D01*
X008006Y011875D01*
X008068Y011872D01*
X008130Y011865D01*
X008192Y011854D01*
X008252Y011839D01*
X008312Y011821D01*
X008370Y011799D01*
X008427Y011773D01*
X008482Y011743D01*
X008535Y011710D01*
X008586Y011674D01*
X008634Y011635D01*
X008680Y011592D01*
X008723Y011547D01*
X008763Y011499D01*
X008800Y011449D01*
X008834Y011396D01*
X008865Y011342D01*
X008891Y011286D01*
X008915Y011228D01*
X008934Y011168D01*
X008950Y011108D01*
X008962Y011046D01*
X008970Y010985D01*
X008974Y010922D01*
X008974Y010860D01*
X008970Y010797D01*
X008962Y010736D01*
X008950Y010674D01*
X008934Y010614D01*
X008915Y010554D01*
X008891Y010496D01*
X008865Y010440D01*
X008834Y010386D01*
X008800Y010333D01*
X008763Y010283D01*
X008723Y010235D01*
X008680Y010190D01*
X008634Y010147D01*
X008586Y010108D01*
X008535Y010072D01*
X008482Y010039D01*
X008427Y010009D01*
X008370Y009983D01*
X008312Y009961D01*
X008252Y009943D01*
X008192Y009928D01*
X008130Y009917D01*
X008068Y009910D01*
X008006Y009907D01*
X007943Y009908D01*
X007881Y009913D01*
X007819Y009922D01*
X007758Y009935D01*
X007698Y009951D01*
X007639Y009972D01*
X007581Y009996D01*
X007525Y010024D01*
X007471Y010055D01*
X007419Y010089D01*
X007370Y010127D01*
X007322Y010168D01*
X007278Y010212D01*
X007236Y010258D01*
X007198Y010308D01*
X007162Y010359D01*
X007130Y010413D01*
X007102Y010468D01*
X007076Y010525D01*
X007055Y010584D01*
X007038Y010644D01*
X007024Y010705D01*
X007014Y010766D01*
X007008Y010829D01*
X007006Y010891D01*
X007290Y011441D02*
X007690Y011441D01*
X012935Y010742D02*
X012935Y009009D01*
X013525Y009009D01*
X013525Y010742D01*
X012935Y010742D01*
X012935Y017852D01*
X016439Y017852D01*
X016478Y017852D02*
X016478Y001899D01*
X012935Y001899D01*
X012935Y009009D01*
X013614Y015626D02*
X013614Y016126D01*
D14*
X008039Y011646D02*
X008039Y011546D01*
X007989Y011496D01*
X007939Y011546D01*
X007939Y011646D01*
X007892Y011646D02*
X007792Y011646D01*
X007792Y011571D01*
X007842Y011596D01*
X007867Y011596D01*
X007892Y011571D01*
X007892Y011521D01*
X007867Y011496D01*
X007817Y011496D01*
X007792Y011521D01*
X007745Y011521D02*
X007720Y011496D01*
X007670Y011496D01*
X007645Y011521D01*
X007645Y011621D01*
X007670Y011646D01*
X007720Y011646D01*
X007745Y011621D01*
X007778Y008698D02*
X007753Y008673D01*
X007778Y008698D02*
X007828Y008698D01*
X007853Y008673D01*
X007853Y008648D01*
X007828Y008623D01*
X007853Y008598D01*
X007853Y008573D01*
X007828Y008548D01*
X007778Y008548D01*
X007753Y008573D01*
X007705Y008573D02*
X007680Y008548D01*
X007630Y008548D01*
X007605Y008573D01*
X007605Y008673D01*
X007630Y008698D01*
X007680Y008698D01*
X007705Y008673D01*
X007803Y008623D02*
X007828Y008623D01*
X007900Y008598D02*
X007950Y008548D01*
X008000Y008598D01*
X008000Y008698D01*
X007900Y008698D02*
X007900Y008598D01*
D15*
X007883Y013130D02*
X007833Y013180D01*
X005933Y013180D01*
X005883Y013130D01*
X005733Y013130D01*
X005716Y013132D01*
X005699Y013136D01*
X005683Y013143D01*
X005669Y013153D01*
X005656Y013166D01*
X005646Y013180D01*
X005639Y013196D01*
X005635Y013213D01*
X005633Y013230D01*
X005633Y013930D01*
X005635Y013947D01*
X005639Y013964D01*
X005646Y013980D01*
X005656Y013994D01*
X005669Y014007D01*
X005683Y014017D01*
X005699Y014024D01*
X005716Y014028D01*
X005733Y014030D01*
X005883Y014030D01*
X005933Y013980D01*
X007833Y013980D01*
X007883Y014030D01*
X008033Y014030D01*
X008050Y014028D01*
X008067Y014024D01*
X008083Y014017D01*
X008097Y014007D01*
X008110Y013994D01*
X008120Y013980D01*
X008127Y013964D01*
X008131Y013947D01*
X008133Y013930D01*
X008133Y013230D01*
X008131Y013213D01*
X008127Y013196D01*
X008120Y013180D01*
X008110Y013166D01*
X008097Y013153D01*
X008083Y013143D01*
X008067Y013136D01*
X008050Y013132D01*
X008033Y013130D01*
X007883Y013130D01*
X007858Y003553D02*
X007608Y003303D01*
X007358Y003553D01*
X006858Y003553D01*
X006608Y003303D01*
X006358Y003553D01*
X005858Y003553D01*
X005608Y003303D01*
X005358Y003553D01*
X004858Y003553D01*
X004608Y003303D01*
X004608Y002803D01*
X004858Y002553D01*
X005358Y002553D01*
X005608Y002803D01*
X005858Y002553D01*
X006358Y002553D01*
X006608Y002803D01*
X006858Y002553D01*
X007358Y002553D01*
X007608Y002803D01*
X007858Y002553D01*
X008358Y002553D01*
X008608Y002803D01*
X008858Y002553D01*
X009358Y002553D01*
X009608Y002803D01*
X009608Y003303D01*
X009358Y003553D01*
X008858Y003553D01*
X008608Y003303D01*
X008358Y003553D01*
X007858Y003553D01*
D16*
X008303Y013580D03*
X005463Y013580D03*
M02*
