G75*
%MOIN*%
%OFA0B0*%
%FSLAX24Y24*%
%IPPOS*%
%LPD*%
%AMOC8*
5,1,8,0,0,1.08239X$1,22.5*
%
%ADD10C,0.0000*%
%ADD11C,0.1300*%
%ADD12OC8,0.0555*%
%ADD13C,0.0555*%
%ADD14OC8,0.0780*%
%ADD15C,0.0280*%
%ADD16OC8,0.0560*%
%ADD17C,0.0640*%
D10*
X000100Y000100D02*
X000100Y019785D01*
X019785Y019785D01*
X019785Y000100D01*
X000100Y000100D01*
X001045Y001675D02*
X001047Y001725D01*
X001053Y001775D01*
X001063Y001824D01*
X001077Y001872D01*
X001094Y001919D01*
X001115Y001964D01*
X001140Y002008D01*
X001168Y002049D01*
X001200Y002088D01*
X001234Y002125D01*
X001271Y002159D01*
X001311Y002189D01*
X001353Y002216D01*
X001397Y002240D01*
X001443Y002261D01*
X001490Y002277D01*
X001538Y002290D01*
X001588Y002299D01*
X001637Y002304D01*
X001688Y002305D01*
X001738Y002302D01*
X001787Y002295D01*
X001836Y002284D01*
X001884Y002269D01*
X001930Y002251D01*
X001975Y002229D01*
X002018Y002203D01*
X002059Y002174D01*
X002098Y002142D01*
X002134Y002107D01*
X002166Y002069D01*
X002196Y002029D01*
X002223Y001986D01*
X002246Y001942D01*
X002265Y001896D01*
X002281Y001848D01*
X002293Y001799D01*
X002301Y001750D01*
X002305Y001700D01*
X002305Y001650D01*
X002301Y001600D01*
X002293Y001551D01*
X002281Y001502D01*
X002265Y001454D01*
X002246Y001408D01*
X002223Y001364D01*
X002196Y001321D01*
X002166Y001281D01*
X002134Y001243D01*
X002098Y001208D01*
X002059Y001176D01*
X002018Y001147D01*
X001975Y001121D01*
X001930Y001099D01*
X001884Y001081D01*
X001836Y001066D01*
X001787Y001055D01*
X001738Y001048D01*
X001688Y001045D01*
X001637Y001046D01*
X001588Y001051D01*
X001538Y001060D01*
X001490Y001073D01*
X001443Y001089D01*
X001397Y001110D01*
X001353Y001134D01*
X001311Y001161D01*
X001271Y001191D01*
X001234Y001225D01*
X001200Y001262D01*
X001168Y001301D01*
X001140Y001342D01*
X001115Y001386D01*
X001094Y001431D01*
X001077Y001478D01*
X001063Y001526D01*
X001053Y001575D01*
X001047Y001625D01*
X001045Y001675D01*
X001045Y018210D02*
X001047Y018260D01*
X001053Y018310D01*
X001063Y018359D01*
X001077Y018407D01*
X001094Y018454D01*
X001115Y018499D01*
X001140Y018543D01*
X001168Y018584D01*
X001200Y018623D01*
X001234Y018660D01*
X001271Y018694D01*
X001311Y018724D01*
X001353Y018751D01*
X001397Y018775D01*
X001443Y018796D01*
X001490Y018812D01*
X001538Y018825D01*
X001588Y018834D01*
X001637Y018839D01*
X001688Y018840D01*
X001738Y018837D01*
X001787Y018830D01*
X001836Y018819D01*
X001884Y018804D01*
X001930Y018786D01*
X001975Y018764D01*
X002018Y018738D01*
X002059Y018709D01*
X002098Y018677D01*
X002134Y018642D01*
X002166Y018604D01*
X002196Y018564D01*
X002223Y018521D01*
X002246Y018477D01*
X002265Y018431D01*
X002281Y018383D01*
X002293Y018334D01*
X002301Y018285D01*
X002305Y018235D01*
X002305Y018185D01*
X002301Y018135D01*
X002293Y018086D01*
X002281Y018037D01*
X002265Y017989D01*
X002246Y017943D01*
X002223Y017899D01*
X002196Y017856D01*
X002166Y017816D01*
X002134Y017778D01*
X002098Y017743D01*
X002059Y017711D01*
X002018Y017682D01*
X001975Y017656D01*
X001930Y017634D01*
X001884Y017616D01*
X001836Y017601D01*
X001787Y017590D01*
X001738Y017583D01*
X001688Y017580D01*
X001637Y017581D01*
X001588Y017586D01*
X001538Y017595D01*
X001490Y017608D01*
X001443Y017624D01*
X001397Y017645D01*
X001353Y017669D01*
X001311Y017696D01*
X001271Y017726D01*
X001234Y017760D01*
X001200Y017797D01*
X001168Y017836D01*
X001140Y017877D01*
X001115Y017921D01*
X001094Y017966D01*
X001077Y018013D01*
X001063Y018061D01*
X001053Y018110D01*
X001047Y018160D01*
X001045Y018210D01*
X017580Y018210D02*
X017582Y018260D01*
X017588Y018310D01*
X017598Y018359D01*
X017612Y018407D01*
X017629Y018454D01*
X017650Y018499D01*
X017675Y018543D01*
X017703Y018584D01*
X017735Y018623D01*
X017769Y018660D01*
X017806Y018694D01*
X017846Y018724D01*
X017888Y018751D01*
X017932Y018775D01*
X017978Y018796D01*
X018025Y018812D01*
X018073Y018825D01*
X018123Y018834D01*
X018172Y018839D01*
X018223Y018840D01*
X018273Y018837D01*
X018322Y018830D01*
X018371Y018819D01*
X018419Y018804D01*
X018465Y018786D01*
X018510Y018764D01*
X018553Y018738D01*
X018594Y018709D01*
X018633Y018677D01*
X018669Y018642D01*
X018701Y018604D01*
X018731Y018564D01*
X018758Y018521D01*
X018781Y018477D01*
X018800Y018431D01*
X018816Y018383D01*
X018828Y018334D01*
X018836Y018285D01*
X018840Y018235D01*
X018840Y018185D01*
X018836Y018135D01*
X018828Y018086D01*
X018816Y018037D01*
X018800Y017989D01*
X018781Y017943D01*
X018758Y017899D01*
X018731Y017856D01*
X018701Y017816D01*
X018669Y017778D01*
X018633Y017743D01*
X018594Y017711D01*
X018553Y017682D01*
X018510Y017656D01*
X018465Y017634D01*
X018419Y017616D01*
X018371Y017601D01*
X018322Y017590D01*
X018273Y017583D01*
X018223Y017580D01*
X018172Y017581D01*
X018123Y017586D01*
X018073Y017595D01*
X018025Y017608D01*
X017978Y017624D01*
X017932Y017645D01*
X017888Y017669D01*
X017846Y017696D01*
X017806Y017726D01*
X017769Y017760D01*
X017735Y017797D01*
X017703Y017836D01*
X017675Y017877D01*
X017650Y017921D01*
X017629Y017966D01*
X017612Y018013D01*
X017598Y018061D01*
X017588Y018110D01*
X017582Y018160D01*
X017580Y018210D01*
X017580Y001675D02*
X017582Y001725D01*
X017588Y001775D01*
X017598Y001824D01*
X017612Y001872D01*
X017629Y001919D01*
X017650Y001964D01*
X017675Y002008D01*
X017703Y002049D01*
X017735Y002088D01*
X017769Y002125D01*
X017806Y002159D01*
X017846Y002189D01*
X017888Y002216D01*
X017932Y002240D01*
X017978Y002261D01*
X018025Y002277D01*
X018073Y002290D01*
X018123Y002299D01*
X018172Y002304D01*
X018223Y002305D01*
X018273Y002302D01*
X018322Y002295D01*
X018371Y002284D01*
X018419Y002269D01*
X018465Y002251D01*
X018510Y002229D01*
X018553Y002203D01*
X018594Y002174D01*
X018633Y002142D01*
X018669Y002107D01*
X018701Y002069D01*
X018731Y002029D01*
X018758Y001986D01*
X018781Y001942D01*
X018800Y001896D01*
X018816Y001848D01*
X018828Y001799D01*
X018836Y001750D01*
X018840Y001700D01*
X018840Y001650D01*
X018836Y001600D01*
X018828Y001551D01*
X018816Y001502D01*
X018800Y001454D01*
X018781Y001408D01*
X018758Y001364D01*
X018731Y001321D01*
X018701Y001281D01*
X018669Y001243D01*
X018633Y001208D01*
X018594Y001176D01*
X018553Y001147D01*
X018510Y001121D01*
X018465Y001099D01*
X018419Y001081D01*
X018371Y001066D01*
X018322Y001055D01*
X018273Y001048D01*
X018223Y001045D01*
X018172Y001046D01*
X018123Y001051D01*
X018073Y001060D01*
X018025Y001073D01*
X017978Y001089D01*
X017932Y001110D01*
X017888Y001134D01*
X017846Y001161D01*
X017806Y001191D01*
X017769Y001225D01*
X017735Y001262D01*
X017703Y001301D01*
X017675Y001342D01*
X017650Y001386D01*
X017629Y001431D01*
X017612Y001478D01*
X017598Y001526D01*
X017588Y001575D01*
X017582Y001625D01*
X017580Y001675D01*
D11*
X018210Y001675D03*
X001675Y001675D03*
X001675Y018210D03*
X018210Y018210D03*
D12*
X005317Y016631D03*
D13*
X006317Y016631D03*
X007317Y016631D03*
X008317Y016631D03*
D14*
X014206Y015876D03*
X015206Y015876D03*
X015206Y014876D03*
X014206Y014876D03*
X014206Y013876D03*
X015206Y013876D03*
X015206Y012876D03*
X014206Y012876D03*
X014206Y011876D03*
X015206Y011876D03*
X015206Y010876D03*
X014206Y010876D03*
X014206Y009876D03*
X015206Y009876D03*
X015206Y008876D03*
X014206Y008876D03*
X014206Y007876D03*
X015206Y007876D03*
X015206Y006876D03*
X014206Y006876D03*
X014206Y005876D03*
X015206Y005876D03*
X015206Y004876D03*
X014206Y004876D03*
X014206Y003876D03*
X015206Y003876D03*
D15*
X008450Y007943D03*
X007450Y007943D03*
X007490Y010891D03*
X008490Y010891D03*
D16*
X008883Y013580D03*
X004883Y013580D03*
D17*
X005108Y003353D02*
X005108Y002753D01*
X006108Y002753D02*
X006108Y003353D01*
X007108Y003353D02*
X007108Y002753D01*
X008108Y002753D02*
X008108Y003353D01*
X009108Y003353D02*
X009108Y002753D01*
M02*
