%
M48
M72
T01C0.02756
T02C0.03150
T03C0.03200
T04C0.04000
T05C0.12598
%
T01
X111000Y66000
X121000Y66000
X121000Y31000
X111000Y31000
T02
X31000Y136000
X41000Y136000
X51000Y136000
X61000Y136000
T03
X31000Y111000
X71000Y111000
T04
X36000Y51000
X46000Y51000
X56000Y51000
X66000Y51000
X76000Y51000
X161000Y36000
X161000Y46000
X171000Y46000
X171000Y36000
X171000Y56000
X171000Y66000
X171000Y76000
X171000Y86000
X161000Y86000
X161000Y76000
X161000Y66000
X161000Y56000
X161000Y96000
X161000Y106000
X161000Y116000
X161000Y126000
X161000Y136000
X171000Y136000
X171000Y126000
X171000Y116000
X171000Y106000
X171000Y96000
X171000Y146000
X171000Y156000
X161000Y156000
X161000Y146000
T05
X16000Y16000
X21000Y176000
X201000Y176000
X201000Y16000
M30
