G75*
%MOIN*%
%OFA0B0*%
%FSLAX25Y25*%
%IPPOS*%
%LPD*%
%AMOC8*
5,1,8,0,0,1.08239X$1,22.5*
%
%ADD10C,0.00000*%
%ADD11C,0.12998*%
%ADD12OC8,0.05550*%
%ADD13C,0.05550*%
%ADD14OC8,0.07800*%
%ADD15C,0.06600*%
%ADD16R,0.06600X0.06600*%
%ADD17OC8,0.05600*%
%ADD18C,0.06400*%
D10*
X0001000Y0001000D02*
X0001000Y0190961D01*
X0219701Y0190961D01*
X0219701Y0001000D01*
X0001000Y0001000D01*
X0009701Y0016000D02*
X0009703Y0016158D01*
X0009709Y0016316D01*
X0009719Y0016474D01*
X0009733Y0016632D01*
X0009751Y0016789D01*
X0009772Y0016946D01*
X0009798Y0017102D01*
X0009828Y0017258D01*
X0009861Y0017413D01*
X0009899Y0017566D01*
X0009940Y0017719D01*
X0009985Y0017871D01*
X0010034Y0018022D01*
X0010087Y0018171D01*
X0010143Y0018319D01*
X0010203Y0018465D01*
X0010267Y0018610D01*
X0010335Y0018753D01*
X0010406Y0018895D01*
X0010480Y0019035D01*
X0010558Y0019172D01*
X0010640Y0019308D01*
X0010724Y0019442D01*
X0010813Y0019573D01*
X0010904Y0019702D01*
X0010999Y0019829D01*
X0011096Y0019954D01*
X0011197Y0020076D01*
X0011301Y0020195D01*
X0011408Y0020312D01*
X0011518Y0020426D01*
X0011631Y0020537D01*
X0011746Y0020646D01*
X0011864Y0020751D01*
X0011985Y0020853D01*
X0012108Y0020953D01*
X0012234Y0021049D01*
X0012362Y0021142D01*
X0012492Y0021232D01*
X0012625Y0021318D01*
X0012760Y0021402D01*
X0012896Y0021481D01*
X0013035Y0021558D01*
X0013176Y0021630D01*
X0013318Y0021700D01*
X0013462Y0021765D01*
X0013608Y0021827D01*
X0013755Y0021885D01*
X0013904Y0021940D01*
X0014054Y0021991D01*
X0014205Y0022038D01*
X0014357Y0022081D01*
X0014510Y0022120D01*
X0014665Y0022156D01*
X0014820Y0022187D01*
X0014976Y0022215D01*
X0015132Y0022239D01*
X0015289Y0022259D01*
X0015447Y0022275D01*
X0015604Y0022287D01*
X0015763Y0022295D01*
X0015921Y0022299D01*
X0016079Y0022299D01*
X0016237Y0022295D01*
X0016396Y0022287D01*
X0016553Y0022275D01*
X0016711Y0022259D01*
X0016868Y0022239D01*
X0017024Y0022215D01*
X0017180Y0022187D01*
X0017335Y0022156D01*
X0017490Y0022120D01*
X0017643Y0022081D01*
X0017795Y0022038D01*
X0017946Y0021991D01*
X0018096Y0021940D01*
X0018245Y0021885D01*
X0018392Y0021827D01*
X0018538Y0021765D01*
X0018682Y0021700D01*
X0018824Y0021630D01*
X0018965Y0021558D01*
X0019104Y0021481D01*
X0019240Y0021402D01*
X0019375Y0021318D01*
X0019508Y0021232D01*
X0019638Y0021142D01*
X0019766Y0021049D01*
X0019892Y0020953D01*
X0020015Y0020853D01*
X0020136Y0020751D01*
X0020254Y0020646D01*
X0020369Y0020537D01*
X0020482Y0020426D01*
X0020592Y0020312D01*
X0020699Y0020195D01*
X0020803Y0020076D01*
X0020904Y0019954D01*
X0021001Y0019829D01*
X0021096Y0019702D01*
X0021187Y0019573D01*
X0021276Y0019442D01*
X0021360Y0019308D01*
X0021442Y0019172D01*
X0021520Y0019035D01*
X0021594Y0018895D01*
X0021665Y0018753D01*
X0021733Y0018610D01*
X0021797Y0018465D01*
X0021857Y0018319D01*
X0021913Y0018171D01*
X0021966Y0018022D01*
X0022015Y0017871D01*
X0022060Y0017719D01*
X0022101Y0017566D01*
X0022139Y0017413D01*
X0022172Y0017258D01*
X0022202Y0017102D01*
X0022228Y0016946D01*
X0022249Y0016789D01*
X0022267Y0016632D01*
X0022281Y0016474D01*
X0022291Y0016316D01*
X0022297Y0016158D01*
X0022299Y0016000D01*
X0022297Y0015842D01*
X0022291Y0015684D01*
X0022281Y0015526D01*
X0022267Y0015368D01*
X0022249Y0015211D01*
X0022228Y0015054D01*
X0022202Y0014898D01*
X0022172Y0014742D01*
X0022139Y0014587D01*
X0022101Y0014434D01*
X0022060Y0014281D01*
X0022015Y0014129D01*
X0021966Y0013978D01*
X0021913Y0013829D01*
X0021857Y0013681D01*
X0021797Y0013535D01*
X0021733Y0013390D01*
X0021665Y0013247D01*
X0021594Y0013105D01*
X0021520Y0012965D01*
X0021442Y0012828D01*
X0021360Y0012692D01*
X0021276Y0012558D01*
X0021187Y0012427D01*
X0021096Y0012298D01*
X0021001Y0012171D01*
X0020904Y0012046D01*
X0020803Y0011924D01*
X0020699Y0011805D01*
X0020592Y0011688D01*
X0020482Y0011574D01*
X0020369Y0011463D01*
X0020254Y0011354D01*
X0020136Y0011249D01*
X0020015Y0011147D01*
X0019892Y0011047D01*
X0019766Y0010951D01*
X0019638Y0010858D01*
X0019508Y0010768D01*
X0019375Y0010682D01*
X0019240Y0010598D01*
X0019104Y0010519D01*
X0018965Y0010442D01*
X0018824Y0010370D01*
X0018682Y0010300D01*
X0018538Y0010235D01*
X0018392Y0010173D01*
X0018245Y0010115D01*
X0018096Y0010060D01*
X0017946Y0010009D01*
X0017795Y0009962D01*
X0017643Y0009919D01*
X0017490Y0009880D01*
X0017335Y0009844D01*
X0017180Y0009813D01*
X0017024Y0009785D01*
X0016868Y0009761D01*
X0016711Y0009741D01*
X0016553Y0009725D01*
X0016396Y0009713D01*
X0016237Y0009705D01*
X0016079Y0009701D01*
X0015921Y0009701D01*
X0015763Y0009705D01*
X0015604Y0009713D01*
X0015447Y0009725D01*
X0015289Y0009741D01*
X0015132Y0009761D01*
X0014976Y0009785D01*
X0014820Y0009813D01*
X0014665Y0009844D01*
X0014510Y0009880D01*
X0014357Y0009919D01*
X0014205Y0009962D01*
X0014054Y0010009D01*
X0013904Y0010060D01*
X0013755Y0010115D01*
X0013608Y0010173D01*
X0013462Y0010235D01*
X0013318Y0010300D01*
X0013176Y0010370D01*
X0013035Y0010442D01*
X0012896Y0010519D01*
X0012760Y0010598D01*
X0012625Y0010682D01*
X0012492Y0010768D01*
X0012362Y0010858D01*
X0012234Y0010951D01*
X0012108Y0011047D01*
X0011985Y0011147D01*
X0011864Y0011249D01*
X0011746Y0011354D01*
X0011631Y0011463D01*
X0011518Y0011574D01*
X0011408Y0011688D01*
X0011301Y0011805D01*
X0011197Y0011924D01*
X0011096Y0012046D01*
X0010999Y0012171D01*
X0010904Y0012298D01*
X0010813Y0012427D01*
X0010724Y0012558D01*
X0010640Y0012692D01*
X0010558Y0012828D01*
X0010480Y0012965D01*
X0010406Y0013105D01*
X0010335Y0013247D01*
X0010267Y0013390D01*
X0010203Y0013535D01*
X0010143Y0013681D01*
X0010087Y0013829D01*
X0010034Y0013978D01*
X0009985Y0014129D01*
X0009940Y0014281D01*
X0009899Y0014434D01*
X0009861Y0014587D01*
X0009828Y0014742D01*
X0009798Y0014898D01*
X0009772Y0015054D01*
X0009751Y0015211D01*
X0009733Y0015368D01*
X0009719Y0015526D01*
X0009709Y0015684D01*
X0009703Y0015842D01*
X0009701Y0016000D01*
X0014701Y0176000D02*
X0014703Y0176158D01*
X0014709Y0176316D01*
X0014719Y0176474D01*
X0014733Y0176632D01*
X0014751Y0176789D01*
X0014772Y0176946D01*
X0014798Y0177102D01*
X0014828Y0177258D01*
X0014861Y0177413D01*
X0014899Y0177566D01*
X0014940Y0177719D01*
X0014985Y0177871D01*
X0015034Y0178022D01*
X0015087Y0178171D01*
X0015143Y0178319D01*
X0015203Y0178465D01*
X0015267Y0178610D01*
X0015335Y0178753D01*
X0015406Y0178895D01*
X0015480Y0179035D01*
X0015558Y0179172D01*
X0015640Y0179308D01*
X0015724Y0179442D01*
X0015813Y0179573D01*
X0015904Y0179702D01*
X0015999Y0179829D01*
X0016096Y0179954D01*
X0016197Y0180076D01*
X0016301Y0180195D01*
X0016408Y0180312D01*
X0016518Y0180426D01*
X0016631Y0180537D01*
X0016746Y0180646D01*
X0016864Y0180751D01*
X0016985Y0180853D01*
X0017108Y0180953D01*
X0017234Y0181049D01*
X0017362Y0181142D01*
X0017492Y0181232D01*
X0017625Y0181318D01*
X0017760Y0181402D01*
X0017896Y0181481D01*
X0018035Y0181558D01*
X0018176Y0181630D01*
X0018318Y0181700D01*
X0018462Y0181765D01*
X0018608Y0181827D01*
X0018755Y0181885D01*
X0018904Y0181940D01*
X0019054Y0181991D01*
X0019205Y0182038D01*
X0019357Y0182081D01*
X0019510Y0182120D01*
X0019665Y0182156D01*
X0019820Y0182187D01*
X0019976Y0182215D01*
X0020132Y0182239D01*
X0020289Y0182259D01*
X0020447Y0182275D01*
X0020604Y0182287D01*
X0020763Y0182295D01*
X0020921Y0182299D01*
X0021079Y0182299D01*
X0021237Y0182295D01*
X0021396Y0182287D01*
X0021553Y0182275D01*
X0021711Y0182259D01*
X0021868Y0182239D01*
X0022024Y0182215D01*
X0022180Y0182187D01*
X0022335Y0182156D01*
X0022490Y0182120D01*
X0022643Y0182081D01*
X0022795Y0182038D01*
X0022946Y0181991D01*
X0023096Y0181940D01*
X0023245Y0181885D01*
X0023392Y0181827D01*
X0023538Y0181765D01*
X0023682Y0181700D01*
X0023824Y0181630D01*
X0023965Y0181558D01*
X0024104Y0181481D01*
X0024240Y0181402D01*
X0024375Y0181318D01*
X0024508Y0181232D01*
X0024638Y0181142D01*
X0024766Y0181049D01*
X0024892Y0180953D01*
X0025015Y0180853D01*
X0025136Y0180751D01*
X0025254Y0180646D01*
X0025369Y0180537D01*
X0025482Y0180426D01*
X0025592Y0180312D01*
X0025699Y0180195D01*
X0025803Y0180076D01*
X0025904Y0179954D01*
X0026001Y0179829D01*
X0026096Y0179702D01*
X0026187Y0179573D01*
X0026276Y0179442D01*
X0026360Y0179308D01*
X0026442Y0179172D01*
X0026520Y0179035D01*
X0026594Y0178895D01*
X0026665Y0178753D01*
X0026733Y0178610D01*
X0026797Y0178465D01*
X0026857Y0178319D01*
X0026913Y0178171D01*
X0026966Y0178022D01*
X0027015Y0177871D01*
X0027060Y0177719D01*
X0027101Y0177566D01*
X0027139Y0177413D01*
X0027172Y0177258D01*
X0027202Y0177102D01*
X0027228Y0176946D01*
X0027249Y0176789D01*
X0027267Y0176632D01*
X0027281Y0176474D01*
X0027291Y0176316D01*
X0027297Y0176158D01*
X0027299Y0176000D01*
X0027297Y0175842D01*
X0027291Y0175684D01*
X0027281Y0175526D01*
X0027267Y0175368D01*
X0027249Y0175211D01*
X0027228Y0175054D01*
X0027202Y0174898D01*
X0027172Y0174742D01*
X0027139Y0174587D01*
X0027101Y0174434D01*
X0027060Y0174281D01*
X0027015Y0174129D01*
X0026966Y0173978D01*
X0026913Y0173829D01*
X0026857Y0173681D01*
X0026797Y0173535D01*
X0026733Y0173390D01*
X0026665Y0173247D01*
X0026594Y0173105D01*
X0026520Y0172965D01*
X0026442Y0172828D01*
X0026360Y0172692D01*
X0026276Y0172558D01*
X0026187Y0172427D01*
X0026096Y0172298D01*
X0026001Y0172171D01*
X0025904Y0172046D01*
X0025803Y0171924D01*
X0025699Y0171805D01*
X0025592Y0171688D01*
X0025482Y0171574D01*
X0025369Y0171463D01*
X0025254Y0171354D01*
X0025136Y0171249D01*
X0025015Y0171147D01*
X0024892Y0171047D01*
X0024766Y0170951D01*
X0024638Y0170858D01*
X0024508Y0170768D01*
X0024375Y0170682D01*
X0024240Y0170598D01*
X0024104Y0170519D01*
X0023965Y0170442D01*
X0023824Y0170370D01*
X0023682Y0170300D01*
X0023538Y0170235D01*
X0023392Y0170173D01*
X0023245Y0170115D01*
X0023096Y0170060D01*
X0022946Y0170009D01*
X0022795Y0169962D01*
X0022643Y0169919D01*
X0022490Y0169880D01*
X0022335Y0169844D01*
X0022180Y0169813D01*
X0022024Y0169785D01*
X0021868Y0169761D01*
X0021711Y0169741D01*
X0021553Y0169725D01*
X0021396Y0169713D01*
X0021237Y0169705D01*
X0021079Y0169701D01*
X0020921Y0169701D01*
X0020763Y0169705D01*
X0020604Y0169713D01*
X0020447Y0169725D01*
X0020289Y0169741D01*
X0020132Y0169761D01*
X0019976Y0169785D01*
X0019820Y0169813D01*
X0019665Y0169844D01*
X0019510Y0169880D01*
X0019357Y0169919D01*
X0019205Y0169962D01*
X0019054Y0170009D01*
X0018904Y0170060D01*
X0018755Y0170115D01*
X0018608Y0170173D01*
X0018462Y0170235D01*
X0018318Y0170300D01*
X0018176Y0170370D01*
X0018035Y0170442D01*
X0017896Y0170519D01*
X0017760Y0170598D01*
X0017625Y0170682D01*
X0017492Y0170768D01*
X0017362Y0170858D01*
X0017234Y0170951D01*
X0017108Y0171047D01*
X0016985Y0171147D01*
X0016864Y0171249D01*
X0016746Y0171354D01*
X0016631Y0171463D01*
X0016518Y0171574D01*
X0016408Y0171688D01*
X0016301Y0171805D01*
X0016197Y0171924D01*
X0016096Y0172046D01*
X0015999Y0172171D01*
X0015904Y0172298D01*
X0015813Y0172427D01*
X0015724Y0172558D01*
X0015640Y0172692D01*
X0015558Y0172828D01*
X0015480Y0172965D01*
X0015406Y0173105D01*
X0015335Y0173247D01*
X0015267Y0173390D01*
X0015203Y0173535D01*
X0015143Y0173681D01*
X0015087Y0173829D01*
X0015034Y0173978D01*
X0014985Y0174129D01*
X0014940Y0174281D01*
X0014899Y0174434D01*
X0014861Y0174587D01*
X0014828Y0174742D01*
X0014798Y0174898D01*
X0014772Y0175054D01*
X0014751Y0175211D01*
X0014733Y0175368D01*
X0014719Y0175526D01*
X0014709Y0175684D01*
X0014703Y0175842D01*
X0014701Y0176000D01*
X0194701Y0176000D02*
X0194703Y0176158D01*
X0194709Y0176316D01*
X0194719Y0176474D01*
X0194733Y0176632D01*
X0194751Y0176789D01*
X0194772Y0176946D01*
X0194798Y0177102D01*
X0194828Y0177258D01*
X0194861Y0177413D01*
X0194899Y0177566D01*
X0194940Y0177719D01*
X0194985Y0177871D01*
X0195034Y0178022D01*
X0195087Y0178171D01*
X0195143Y0178319D01*
X0195203Y0178465D01*
X0195267Y0178610D01*
X0195335Y0178753D01*
X0195406Y0178895D01*
X0195480Y0179035D01*
X0195558Y0179172D01*
X0195640Y0179308D01*
X0195724Y0179442D01*
X0195813Y0179573D01*
X0195904Y0179702D01*
X0195999Y0179829D01*
X0196096Y0179954D01*
X0196197Y0180076D01*
X0196301Y0180195D01*
X0196408Y0180312D01*
X0196518Y0180426D01*
X0196631Y0180537D01*
X0196746Y0180646D01*
X0196864Y0180751D01*
X0196985Y0180853D01*
X0197108Y0180953D01*
X0197234Y0181049D01*
X0197362Y0181142D01*
X0197492Y0181232D01*
X0197625Y0181318D01*
X0197760Y0181402D01*
X0197896Y0181481D01*
X0198035Y0181558D01*
X0198176Y0181630D01*
X0198318Y0181700D01*
X0198462Y0181765D01*
X0198608Y0181827D01*
X0198755Y0181885D01*
X0198904Y0181940D01*
X0199054Y0181991D01*
X0199205Y0182038D01*
X0199357Y0182081D01*
X0199510Y0182120D01*
X0199665Y0182156D01*
X0199820Y0182187D01*
X0199976Y0182215D01*
X0200132Y0182239D01*
X0200289Y0182259D01*
X0200447Y0182275D01*
X0200604Y0182287D01*
X0200763Y0182295D01*
X0200921Y0182299D01*
X0201079Y0182299D01*
X0201237Y0182295D01*
X0201396Y0182287D01*
X0201553Y0182275D01*
X0201711Y0182259D01*
X0201868Y0182239D01*
X0202024Y0182215D01*
X0202180Y0182187D01*
X0202335Y0182156D01*
X0202490Y0182120D01*
X0202643Y0182081D01*
X0202795Y0182038D01*
X0202946Y0181991D01*
X0203096Y0181940D01*
X0203245Y0181885D01*
X0203392Y0181827D01*
X0203538Y0181765D01*
X0203682Y0181700D01*
X0203824Y0181630D01*
X0203965Y0181558D01*
X0204104Y0181481D01*
X0204240Y0181402D01*
X0204375Y0181318D01*
X0204508Y0181232D01*
X0204638Y0181142D01*
X0204766Y0181049D01*
X0204892Y0180953D01*
X0205015Y0180853D01*
X0205136Y0180751D01*
X0205254Y0180646D01*
X0205369Y0180537D01*
X0205482Y0180426D01*
X0205592Y0180312D01*
X0205699Y0180195D01*
X0205803Y0180076D01*
X0205904Y0179954D01*
X0206001Y0179829D01*
X0206096Y0179702D01*
X0206187Y0179573D01*
X0206276Y0179442D01*
X0206360Y0179308D01*
X0206442Y0179172D01*
X0206520Y0179035D01*
X0206594Y0178895D01*
X0206665Y0178753D01*
X0206733Y0178610D01*
X0206797Y0178465D01*
X0206857Y0178319D01*
X0206913Y0178171D01*
X0206966Y0178022D01*
X0207015Y0177871D01*
X0207060Y0177719D01*
X0207101Y0177566D01*
X0207139Y0177413D01*
X0207172Y0177258D01*
X0207202Y0177102D01*
X0207228Y0176946D01*
X0207249Y0176789D01*
X0207267Y0176632D01*
X0207281Y0176474D01*
X0207291Y0176316D01*
X0207297Y0176158D01*
X0207299Y0176000D01*
X0207297Y0175842D01*
X0207291Y0175684D01*
X0207281Y0175526D01*
X0207267Y0175368D01*
X0207249Y0175211D01*
X0207228Y0175054D01*
X0207202Y0174898D01*
X0207172Y0174742D01*
X0207139Y0174587D01*
X0207101Y0174434D01*
X0207060Y0174281D01*
X0207015Y0174129D01*
X0206966Y0173978D01*
X0206913Y0173829D01*
X0206857Y0173681D01*
X0206797Y0173535D01*
X0206733Y0173390D01*
X0206665Y0173247D01*
X0206594Y0173105D01*
X0206520Y0172965D01*
X0206442Y0172828D01*
X0206360Y0172692D01*
X0206276Y0172558D01*
X0206187Y0172427D01*
X0206096Y0172298D01*
X0206001Y0172171D01*
X0205904Y0172046D01*
X0205803Y0171924D01*
X0205699Y0171805D01*
X0205592Y0171688D01*
X0205482Y0171574D01*
X0205369Y0171463D01*
X0205254Y0171354D01*
X0205136Y0171249D01*
X0205015Y0171147D01*
X0204892Y0171047D01*
X0204766Y0170951D01*
X0204638Y0170858D01*
X0204508Y0170768D01*
X0204375Y0170682D01*
X0204240Y0170598D01*
X0204104Y0170519D01*
X0203965Y0170442D01*
X0203824Y0170370D01*
X0203682Y0170300D01*
X0203538Y0170235D01*
X0203392Y0170173D01*
X0203245Y0170115D01*
X0203096Y0170060D01*
X0202946Y0170009D01*
X0202795Y0169962D01*
X0202643Y0169919D01*
X0202490Y0169880D01*
X0202335Y0169844D01*
X0202180Y0169813D01*
X0202024Y0169785D01*
X0201868Y0169761D01*
X0201711Y0169741D01*
X0201553Y0169725D01*
X0201396Y0169713D01*
X0201237Y0169705D01*
X0201079Y0169701D01*
X0200921Y0169701D01*
X0200763Y0169705D01*
X0200604Y0169713D01*
X0200447Y0169725D01*
X0200289Y0169741D01*
X0200132Y0169761D01*
X0199976Y0169785D01*
X0199820Y0169813D01*
X0199665Y0169844D01*
X0199510Y0169880D01*
X0199357Y0169919D01*
X0199205Y0169962D01*
X0199054Y0170009D01*
X0198904Y0170060D01*
X0198755Y0170115D01*
X0198608Y0170173D01*
X0198462Y0170235D01*
X0198318Y0170300D01*
X0198176Y0170370D01*
X0198035Y0170442D01*
X0197896Y0170519D01*
X0197760Y0170598D01*
X0197625Y0170682D01*
X0197492Y0170768D01*
X0197362Y0170858D01*
X0197234Y0170951D01*
X0197108Y0171047D01*
X0196985Y0171147D01*
X0196864Y0171249D01*
X0196746Y0171354D01*
X0196631Y0171463D01*
X0196518Y0171574D01*
X0196408Y0171688D01*
X0196301Y0171805D01*
X0196197Y0171924D01*
X0196096Y0172046D01*
X0195999Y0172171D01*
X0195904Y0172298D01*
X0195813Y0172427D01*
X0195724Y0172558D01*
X0195640Y0172692D01*
X0195558Y0172828D01*
X0195480Y0172965D01*
X0195406Y0173105D01*
X0195335Y0173247D01*
X0195267Y0173390D01*
X0195203Y0173535D01*
X0195143Y0173681D01*
X0195087Y0173829D01*
X0195034Y0173978D01*
X0194985Y0174129D01*
X0194940Y0174281D01*
X0194899Y0174434D01*
X0194861Y0174587D01*
X0194828Y0174742D01*
X0194798Y0174898D01*
X0194772Y0175054D01*
X0194751Y0175211D01*
X0194733Y0175368D01*
X0194719Y0175526D01*
X0194709Y0175684D01*
X0194703Y0175842D01*
X0194701Y0176000D01*
X0194701Y0016000D02*
X0194703Y0016158D01*
X0194709Y0016316D01*
X0194719Y0016474D01*
X0194733Y0016632D01*
X0194751Y0016789D01*
X0194772Y0016946D01*
X0194798Y0017102D01*
X0194828Y0017258D01*
X0194861Y0017413D01*
X0194899Y0017566D01*
X0194940Y0017719D01*
X0194985Y0017871D01*
X0195034Y0018022D01*
X0195087Y0018171D01*
X0195143Y0018319D01*
X0195203Y0018465D01*
X0195267Y0018610D01*
X0195335Y0018753D01*
X0195406Y0018895D01*
X0195480Y0019035D01*
X0195558Y0019172D01*
X0195640Y0019308D01*
X0195724Y0019442D01*
X0195813Y0019573D01*
X0195904Y0019702D01*
X0195999Y0019829D01*
X0196096Y0019954D01*
X0196197Y0020076D01*
X0196301Y0020195D01*
X0196408Y0020312D01*
X0196518Y0020426D01*
X0196631Y0020537D01*
X0196746Y0020646D01*
X0196864Y0020751D01*
X0196985Y0020853D01*
X0197108Y0020953D01*
X0197234Y0021049D01*
X0197362Y0021142D01*
X0197492Y0021232D01*
X0197625Y0021318D01*
X0197760Y0021402D01*
X0197896Y0021481D01*
X0198035Y0021558D01*
X0198176Y0021630D01*
X0198318Y0021700D01*
X0198462Y0021765D01*
X0198608Y0021827D01*
X0198755Y0021885D01*
X0198904Y0021940D01*
X0199054Y0021991D01*
X0199205Y0022038D01*
X0199357Y0022081D01*
X0199510Y0022120D01*
X0199665Y0022156D01*
X0199820Y0022187D01*
X0199976Y0022215D01*
X0200132Y0022239D01*
X0200289Y0022259D01*
X0200447Y0022275D01*
X0200604Y0022287D01*
X0200763Y0022295D01*
X0200921Y0022299D01*
X0201079Y0022299D01*
X0201237Y0022295D01*
X0201396Y0022287D01*
X0201553Y0022275D01*
X0201711Y0022259D01*
X0201868Y0022239D01*
X0202024Y0022215D01*
X0202180Y0022187D01*
X0202335Y0022156D01*
X0202490Y0022120D01*
X0202643Y0022081D01*
X0202795Y0022038D01*
X0202946Y0021991D01*
X0203096Y0021940D01*
X0203245Y0021885D01*
X0203392Y0021827D01*
X0203538Y0021765D01*
X0203682Y0021700D01*
X0203824Y0021630D01*
X0203965Y0021558D01*
X0204104Y0021481D01*
X0204240Y0021402D01*
X0204375Y0021318D01*
X0204508Y0021232D01*
X0204638Y0021142D01*
X0204766Y0021049D01*
X0204892Y0020953D01*
X0205015Y0020853D01*
X0205136Y0020751D01*
X0205254Y0020646D01*
X0205369Y0020537D01*
X0205482Y0020426D01*
X0205592Y0020312D01*
X0205699Y0020195D01*
X0205803Y0020076D01*
X0205904Y0019954D01*
X0206001Y0019829D01*
X0206096Y0019702D01*
X0206187Y0019573D01*
X0206276Y0019442D01*
X0206360Y0019308D01*
X0206442Y0019172D01*
X0206520Y0019035D01*
X0206594Y0018895D01*
X0206665Y0018753D01*
X0206733Y0018610D01*
X0206797Y0018465D01*
X0206857Y0018319D01*
X0206913Y0018171D01*
X0206966Y0018022D01*
X0207015Y0017871D01*
X0207060Y0017719D01*
X0207101Y0017566D01*
X0207139Y0017413D01*
X0207172Y0017258D01*
X0207202Y0017102D01*
X0207228Y0016946D01*
X0207249Y0016789D01*
X0207267Y0016632D01*
X0207281Y0016474D01*
X0207291Y0016316D01*
X0207297Y0016158D01*
X0207299Y0016000D01*
X0207297Y0015842D01*
X0207291Y0015684D01*
X0207281Y0015526D01*
X0207267Y0015368D01*
X0207249Y0015211D01*
X0207228Y0015054D01*
X0207202Y0014898D01*
X0207172Y0014742D01*
X0207139Y0014587D01*
X0207101Y0014434D01*
X0207060Y0014281D01*
X0207015Y0014129D01*
X0206966Y0013978D01*
X0206913Y0013829D01*
X0206857Y0013681D01*
X0206797Y0013535D01*
X0206733Y0013390D01*
X0206665Y0013247D01*
X0206594Y0013105D01*
X0206520Y0012965D01*
X0206442Y0012828D01*
X0206360Y0012692D01*
X0206276Y0012558D01*
X0206187Y0012427D01*
X0206096Y0012298D01*
X0206001Y0012171D01*
X0205904Y0012046D01*
X0205803Y0011924D01*
X0205699Y0011805D01*
X0205592Y0011688D01*
X0205482Y0011574D01*
X0205369Y0011463D01*
X0205254Y0011354D01*
X0205136Y0011249D01*
X0205015Y0011147D01*
X0204892Y0011047D01*
X0204766Y0010951D01*
X0204638Y0010858D01*
X0204508Y0010768D01*
X0204375Y0010682D01*
X0204240Y0010598D01*
X0204104Y0010519D01*
X0203965Y0010442D01*
X0203824Y0010370D01*
X0203682Y0010300D01*
X0203538Y0010235D01*
X0203392Y0010173D01*
X0203245Y0010115D01*
X0203096Y0010060D01*
X0202946Y0010009D01*
X0202795Y0009962D01*
X0202643Y0009919D01*
X0202490Y0009880D01*
X0202335Y0009844D01*
X0202180Y0009813D01*
X0202024Y0009785D01*
X0201868Y0009761D01*
X0201711Y0009741D01*
X0201553Y0009725D01*
X0201396Y0009713D01*
X0201237Y0009705D01*
X0201079Y0009701D01*
X0200921Y0009701D01*
X0200763Y0009705D01*
X0200604Y0009713D01*
X0200447Y0009725D01*
X0200289Y0009741D01*
X0200132Y0009761D01*
X0199976Y0009785D01*
X0199820Y0009813D01*
X0199665Y0009844D01*
X0199510Y0009880D01*
X0199357Y0009919D01*
X0199205Y0009962D01*
X0199054Y0010009D01*
X0198904Y0010060D01*
X0198755Y0010115D01*
X0198608Y0010173D01*
X0198462Y0010235D01*
X0198318Y0010300D01*
X0198176Y0010370D01*
X0198035Y0010442D01*
X0197896Y0010519D01*
X0197760Y0010598D01*
X0197625Y0010682D01*
X0197492Y0010768D01*
X0197362Y0010858D01*
X0197234Y0010951D01*
X0197108Y0011047D01*
X0196985Y0011147D01*
X0196864Y0011249D01*
X0196746Y0011354D01*
X0196631Y0011463D01*
X0196518Y0011574D01*
X0196408Y0011688D01*
X0196301Y0011805D01*
X0196197Y0011924D01*
X0196096Y0012046D01*
X0195999Y0012171D01*
X0195904Y0012298D01*
X0195813Y0012427D01*
X0195724Y0012558D01*
X0195640Y0012692D01*
X0195558Y0012828D01*
X0195480Y0012965D01*
X0195406Y0013105D01*
X0195335Y0013247D01*
X0195267Y0013390D01*
X0195203Y0013535D01*
X0195143Y0013681D01*
X0195087Y0013829D01*
X0195034Y0013978D01*
X0194985Y0014129D01*
X0194940Y0014281D01*
X0194899Y0014434D01*
X0194861Y0014587D01*
X0194828Y0014742D01*
X0194798Y0014898D01*
X0194772Y0015054D01*
X0194751Y0015211D01*
X0194733Y0015368D01*
X0194719Y0015526D01*
X0194709Y0015684D01*
X0194703Y0015842D01*
X0194701Y0016000D01*
D11*
X0201000Y0016000D03*
X0201000Y0176000D03*
X0021000Y0176000D03*
X0016000Y0016000D03*
D12*
X0031000Y0136000D03*
D13*
X0041000Y0136000D03*
X0051000Y0136000D03*
X0061000Y0136000D03*
D14*
X0161000Y0136000D03*
X0161000Y0126000D03*
X0161000Y0116000D03*
X0161000Y0106000D03*
X0161000Y0096000D03*
X0171000Y0096000D03*
X0171000Y0106000D03*
X0171000Y0116000D03*
X0171000Y0126000D03*
X0171000Y0136000D03*
X0171000Y0146000D03*
X0171000Y0156000D03*
X0161000Y0156000D03*
X0161000Y0146000D03*
X0161000Y0086000D03*
X0161000Y0076000D03*
X0161000Y0066000D03*
X0161000Y0056000D03*
X0171000Y0056000D03*
X0171000Y0066000D03*
X0171000Y0076000D03*
X0171000Y0086000D03*
X0171000Y0046000D03*
X0171000Y0036000D03*
X0161000Y0036000D03*
X0161000Y0046000D03*
D15*
X0111000Y0031000D03*
X0111000Y0066000D03*
D16*
X0121000Y0066000D03*
X0121000Y0031000D03*
D17*
X0071000Y0111000D03*
X0031000Y0111000D03*
D18*
X0036000Y0054000D02*
X0036000Y0048000D01*
X0046000Y0048000D02*
X0046000Y0054000D01*
X0056000Y0054000D02*
X0056000Y0048000D01*
X0066000Y0048000D02*
X0066000Y0054000D01*
X0076000Y0054000D02*
X0076000Y0048000D01*
M02*
